<svg width="293" height="497" viewBox="0 0 293 497" fill="none" xmlns="http://www.w3.org/2000/svg">
<path d="M80.2752 496.834C80.5587 496.737 80.8421 496.594 81.1323 496.554C86.1353 495.882 91.1581 495.345 96.1414 494.525C108.003 492.575 119.715 489.93 131.139 486.156C162.694 475.74 191.402 460.218 216.441 438.232C242.998 414.919 262.685 386.706 276.045 354.042C281.758 340.076 286.154 325.707 288.788 310.841C289.911 304.505 290.647 298.093 291.39 291.699C292.321 283.648 292.627 275.554 292.519 267.454C291.912 222.487 278.038 182.046 250.962 146.151C241.671 133.835 231.273 122.514 219.127 112.96C194.904 93.8952 167.887 80.5721 137.644 74.0621C122.904 70.893 107.982 69.5818 92.9168 70.1605C79.5802 70.6763 66.3693 72.3009 53.6235 76.3812C36.5861 81.8347 20.0877 88.5829 5.2181 98.738C-18.702 115.072 -37.3912 135.962 -49.8149 162.265C-53.0778 169.175 -55.482 176.412 -57.9702 183.616C-60.5607 191.111 -61.9961 198.834 -62.9538 206.679C-64.0941 216.072 -64.3119 225.495 -63.7107 234.935C-62.3998 255.587 -56.8743 275.028 -46.4771 292.946C-34.7706 313.13 -18.9414 329.271 1.57577 340.62C11.9442 346.356 23.0163 350.077 34.6134 352.481C42.8805 354.199 51.1761 354.594 59.5337 354.157C74.0434 353.393 88.0565 350.392 101.105 343.815C117.18 335.714 129.865 323.96 138.623 308.115C142.454 301.184 145.574 293.965 147.273 286.202C148.897 278.787 149.262 271.305 148.389 263.756C147.635 257.212 146.152 250.858 143.587 244.796C137.723 230.954 127.98 220.677 114.635 213.841C108.873 210.891 102.678 209.716 96.1978 210.231C92.619 210.519 89.1837 211.373 85.879 212.75C81.3696 214.62 77.1453 216.967 73.7114 220.518C70.0781 224.281 67.5625 228.661 66.7391 233.874C65.7763 239.984 67.3659 245.449 71.3975 250.119C72.5624 251.47 74.1261 252.465 75.4775 253.661C76.2082 254.303 76.939 254.972 77.5668 255.712C78.3693 256.658 78.6692 257.785 78.4858 259.037C78.0935 261.663 77.2687 264.167 75.9466 266.448C75.3177 267.533 74.3983 268.535 73.3943 269.293C66.7463 274.342 59.2616 275.563 51.2712 273.626C43.7068 271.79 37.4645 267.694 31.9921 262.17C25.4717 255.591 22.1462 247.527 20.4566 238.671C19.6969 234.681 19.2208 230.619 18.893 226.57C18.4045 220.439 19.2901 214.419 21.1437 208.577C28.347 185.882 43.0581 169.962 64.831 160.528C76.4905 155.477 88.7257 153.243 101.439 153.425C117.151 153.651 132.13 156.935 146.205 163.963C164.988 173.35 179.991 187.03 190.878 204.934C198.382 217.269 203.8 230.577 206.84 244.788C208.723 253.592 209.929 262.462 209.819 271.472C209.511 296.54 203.155 319.93 190.234 341.488C182.313 354.706 172.957 366.734 161.584 377.195C145.425 392.055 126.614 402.228 105.827 408.886C95.2525 412.27 84.4236 414.59 73.3853 415.873C65.4225 416.793 57.4448 416.99 49.4459 416.587C44.7562 416.349 40.0667 416.157 35.3898 415.86C30.0807 415.521 24.8471 414.562 19.6775 413.371C-17.0139 404.9 -48.6167 387.372 -74.7265 360.143C-89.0235 345.235 -100.334 328.268 -109.031 309.552C-115.242 296.188 -120.151 282.382 -123.282 267.965C-125.197 259.141 -126.545 250.233 -127.287 241.232C-127.929 233.508 -128.099 225.776 -127.825 218.043C-127.282 202.737 -124.997 187.685 -121.06 172.88C-114.712 149.013 -104.366 126.959 -91.2232 106.11C-80.559 89.1895 -67.3146 74.5957 -52.0464 61.7761C-32.8533 45.6625 -11.9495 32.2849 11.1769 22.5058C26.7212 15.9281 42.8062 11.2383 59.4645 8.50741C64.8539 7.62123 70.2631 6.85107 75.6591 6.01646C76.2651 5.92442 76.8645 5.77437 77.6831 5.61078C77.4651 3.80567 77.2601 2.04566 77.042 0.240554C76.6163 0.222436 76.313 0.178183 76.0164 0.198387C70.2512 0.531036 64.4795 0.799212 58.7211 1.23503C45.0184 2.26774 31.4995 4.4414 18.1907 7.89137C-7.04765 14.4326 -30.5395 24.9544 -52.143 39.482C-66.3178 49.0159 -79.858 59.4315 -91.7414 71.8158C-99.8309 80.2423 -107.086 89.3435 -113.695 98.9781C-123.329 113.026 -132.156 127.549 -139.316 143.035C-142.822 150.622 -145.837 158.396 -148.045 166.463C-149.781 172.821 -151.634 179.146 -153.331 185.516C-155.328 192.997 -156.493 200.636 -157.361 208.325C-158.329 216.893 -158.794 225.484 -158.789 234.1C-158.781 245.67 -157.935 257.172 -156.264 268.621C-153.968 284.376 -150.086 299.726 -144.663 314.692C-143.474 317.977 -142.574 321.367 -141.3 324.62C-136.641 336.524 -130.508 347.664 -123.498 358.329C-103.597 388.621 -77.8896 412.828 -47.0245 431.757C-26.9625 444.055 -5.27479 452.002 17.572 457.089C24.994 458.744 32.5231 459.497 40.0712 460.158C49.2838 460.957 58.5076 461.202 67.7428 460.885C101.684 459.723 133.774 451.633 163.524 434.967C171.683 430.397 179.407 425.17 186.743 419.377C196.454 411.707 205.052 402.885 213.21 393.627C226.344 378.717 237.287 362.357 245.516 344.237C252.098 329.759 256.666 314.674 259.259 298.976C260.463 291.692 261.126 284.357 261.627 277.004C261.664 276.488 261.695 275.978 261.984 275.462C261.995 279.447 262.052 283.433 262.012 287.418C261.813 305.811 258.556 323.698 253.002 341.191C246.374 362.072 236.613 381.428 224.417 399.585C224.218 399.883 224.019 400.193 223.788 400.464C218.832 406.199 213.875 411.934 208.906 417.655C186.201 443.807 158.562 463.041 126.641 476.27C111.657 482.478 96.2172 487.269 80.4324 490.959C79.9297 491.076 79.4334 491.2 78.7567 491.37C78.9555 493.201 79.1477 495.019 79.3465 496.843C79.6561 496.836 79.9656 496.835 80.2752 496.834Z" fill="black" fill-opacity="0.1"/>
</svg>
