<svg width="270" height="445" viewBox="0 0 270 445" fill="none" xmlns="http://www.w3.org/2000/svg">
<path d="M489.357 234.774C489.262 235.054 489.122 235.334 489.084 235.619C488.436 240.55 487.921 245.5 487.127 250.412C485.24 262.104 482.666 273.649 478.981 284.915C468.807 316.031 453.595 344.358 432.003 369.089C409.108 395.319 381.366 414.794 349.219 428.049C335.475 433.717 321.33 438.089 306.69 440.726C300.45 441.85 294.133 442.594 287.836 443.344C279.906 444.284 271.931 444.608 263.95 444.525C219.642 444.055 179.756 430.502 144.311 403.929C132.149 394.81 120.965 384.599 111.517 372.66C92.6633 348.851 79.4591 322.271 72.9586 292.496C69.7941 277.983 68.4597 263.285 68.9871 248.442C69.4574 235.302 71.0205 222.282 75.0047 209.714C80.3296 192.913 86.9317 176.64 96.8953 161.962C112.921 138.35 133.452 119.878 159.333 107.564C166.132 104.33 173.255 101.94 180.347 99.4687C187.724 96.8953 195.33 95.4592 203.057 94.4934C212.309 93.3433 221.592 93.1018 230.895 93.6674C251.248 94.9001 270.419 100.288 288.103 110.48C308.024 121.956 323.973 137.505 335.214 157.686C340.895 167.884 344.593 178.781 346.995 190.2C348.711 198.34 349.124 206.511 348.717 214.746C348.005 229.043 345.089 242.857 338.645 255.73C330.709 271.59 319.163 284.121 303.576 292.794C296.758 296.588 289.654 299.682 282.009 301.379C274.708 302.999 267.337 303.38 259.896 302.542C253.447 301.817 247.181 300.375 241.202 297.865C227.546 292.127 217.392 282.558 210.619 269.43C207.696 263.762 206.52 257.662 207.009 251.276C207.283 247.75 208.115 244.363 209.462 241.103C211.292 236.655 213.592 232.487 217.081 229.094C220.779 225.504 225.087 223.013 230.222 222.187C236.239 221.221 241.628 222.771 246.241 226.73C247.575 227.874 248.56 229.411 249.742 230.739C250.378 231.457 251.038 232.175 251.769 232.792C252.703 233.58 253.815 233.872 255.048 233.688C257.634 233.294 260.1 232.474 262.343 231.165C263.41 230.542 264.395 229.634 265.139 228.643C270.095 222.079 271.277 214.702 269.345 206.835C267.515 199.388 263.461 193.25 258.003 187.874C251.502 181.469 243.547 178.216 234.816 176.577C230.882 175.839 226.879 175.382 222.889 175.071C216.846 174.607 210.917 175.496 205.167 177.339C182.825 184.5 167.18 199.039 157.948 220.516C153.004 232.017 150.837 244.077 151.053 256.601C151.32 272.08 154.599 286.828 161.563 300.673C170.866 319.151 184.388 333.893 202.059 344.568C214.234 351.926 227.362 357.225 241.373 360.18C250.053 362.01 258.797 363.173 267.674 363.04C292.373 362.665 315.401 356.336 336.606 343.545C349.607 335.704 361.432 326.452 371.707 315.218C386.303 299.256 396.273 280.696 402.773 260.197C406.077 249.77 408.333 239.095 409.566 228.217C410.449 220.369 410.621 212.509 410.201 204.63C409.954 200.011 409.75 195.391 409.445 190.784C409.096 185.555 408.136 180.402 406.948 175.312C398.497 139.189 381.137 108.104 354.233 82.4586C339.503 68.4159 322.753 57.3215 304.288 48.8069C291.102 42.726 277.485 37.9286 263.27 34.885C254.571 33.0232 245.79 31.7206 236.919 31.0153C229.307 30.4053 221.688 30.2591 214.069 30.5514C198.99 31.1296 184.166 33.4235 169.589 37.344C146.09 43.6664 124.39 53.922 103.885 66.929C87.2431 77.4833 72.9014 90.5729 60.3135 105.651C44.4912 124.606 31.3696 145.238 21.8 168.049C15.363 183.382 10.7879 199.242 8.14453 215.661C7.2867 220.973 6.54324 226.304 5.73624 231.623C5.64728 232.22 5.50113 232.811 5.34228 233.618C3.56307 233.408 1.82833 233.211 0.0491166 233.002C0.0300537 232.582 -0.0144118 232.284 0.00465113 231.991C0.316013 226.311 0.56383 220.624 0.976861 214.949C1.95543 201.447 4.0587 188.122 7.42013 175.001C13.7935 150.118 24.0939 126.944 38.3466 105.62C47.7002 91.6277 57.9243 78.2585 70.0928 66.516C78.3725 58.5225 87.3193 51.3486 96.7936 44.8102C110.608 35.2789 124.892 26.5419 140.13 19.4443C147.596 15.9686 155.247 12.9758 163.19 10.7773C169.449 9.04892 175.676 7.20621 181.948 5.516C189.313 3.52715 196.836 2.35798 204.41 1.48111C212.849 0.502566 221.313 0.0196491 229.802 0.000586585C241.202 -0.0248301 252.538 0.775795 263.823 2.38975C279.353 4.60736 294.489 8.38809 309.25 13.6875C312.491 14.8503 315.833 15.7271 319.042 16.9726C330.785 21.5285 341.778 27.5395 352.307 34.4148C382.211 53.9348 406.135 79.1926 424.874 109.546C437.048 129.276 444.94 150.62 450.018 173.114C451.67 180.421 452.432 187.836 453.106 195.271C453.919 204.344 454.186 213.431 453.9 222.53C452.852 255.972 444.972 287.609 428.635 316.965C424.155 325.016 419.028 332.641 413.34 339.885C405.811 349.473 397.143 357.969 388.044 366.032C373.391 379.014 357.302 389.841 339.471 398C325.225 404.526 310.375 409.069 294.915 411.668C287.741 412.875 280.516 413.549 273.272 414.064C272.764 414.102 272.262 414.133 271.753 414.419C275.68 414.419 279.607 414.464 283.534 414.413C301.657 414.165 319.271 410.906 336.491 405.384C357.047 398.794 376.091 389.123 393.947 377.057C394.239 376.86 394.544 376.663 394.811 376.434C400.448 371.535 406.084 366.636 411.707 361.724C437.411 339.281 456.283 311.997 469.227 280.512C475.301 265.732 479.978 250.507 483.568 234.946C483.683 234.45 483.803 233.961 483.969 233.294C485.773 233.484 487.565 233.669 489.363 233.859C489.357 234.164 489.357 234.469 489.357 234.774Z" fill="black" fill-opacity="0.1"/>
</svg>
