<svg width="248" height="272" viewBox="0 0 248 272" fill="none" xmlns="http://www.w3.org/2000/svg">
<path d="M131.052 271.827C131.207 271.774 131.362 271.696 131.52 271.674C134.255 271.307 137.001 271.013 139.725 270.565C146.209 269.499 152.612 268.053 158.857 265.99C176.106 260.296 191.799 251.811 205.487 239.792C220.004 227.049 230.766 211.626 238.069 193.77C241.192 186.136 243.595 178.281 245.035 170.155C245.649 166.691 246.051 163.186 246.457 159.691C246.966 155.29 247.133 150.865 247.075 146.437C246.743 121.856 239.158 99.7492 224.357 80.1275C219.278 73.3946 213.595 67.2064 206.955 61.9834C193.714 51.5619 178.944 44.2789 162.413 40.7201C154.355 38.9878 146.198 38.271 137.962 38.5874C130.672 38.8693 123.45 39.7574 116.483 41.9879C107.169 44.9691 98.1507 48.6579 90.0223 54.2092C76.9464 63.1378 66.7301 74.5578 59.9387 88.9361C58.155 92.7134 56.8408 96.6691 55.4806 100.607C54.0645 104.704 53.2799 108.926 52.7564 113.215C52.133 118.35 52.0139 123.5 52.3426 128.661C53.0592 139.95 56.0797 150.577 61.7633 160.372C68.1626 171.406 76.8155 180.229 88.0312 186.433C93.6991 189.569 99.7516 191.603 106.091 192.917C110.61 193.856 115.145 194.072 119.714 193.833C127.645 193.415 135.306 191.775 142.438 188.18C151.226 183.751 158.16 177.326 162.948 168.664C165.042 164.875 166.747 160.929 167.676 156.686C168.564 152.632 168.763 148.542 168.286 144.416C167.874 140.838 167.063 137.365 165.661 134.052C162.456 126.485 157.13 120.867 149.835 117.13C146.685 115.517 143.299 114.875 139.756 115.156C137.8 115.314 135.922 115.781 134.115 116.533C131.65 117.556 129.341 118.839 127.464 120.78C125.478 122.837 124.103 125.231 123.652 128.081C123.126 131.421 123.995 134.408 126.199 136.961C126.836 137.7 127.691 138.243 128.429 138.897C128.829 139.248 129.228 139.614 129.571 140.018C130.01 140.535 130.174 141.152 130.074 141.836C129.859 143.271 129.408 144.641 128.686 145.887C128.342 146.48 127.839 147.028 127.291 147.442C123.656 150.203 119.565 150.87 115.197 149.811C111.062 148.808 107.65 146.568 104.658 143.549C101.094 139.953 99.2759 135.544 98.3523 130.703C97.937 128.522 97.6768 126.302 97.4976 124.088C97.2306 120.736 97.7147 117.446 98.7279 114.253C102.666 101.846 110.707 93.1434 122.609 87.9867C128.983 85.2255 135.671 84.0041 142.621 84.1039C151.21 84.2271 159.398 86.0226 167.092 89.8642C177.36 94.9956 185.561 102.474 191.512 112.261C195.615 119.003 198.576 126.278 200.238 134.047C201.267 138.86 201.927 143.709 201.867 148.634C201.698 162.337 198.224 175.123 191.16 186.908C186.83 194.133 181.716 200.708 175.499 206.427C166.666 214.55 156.383 220.111 145.02 223.75C139.239 225.6 133.32 226.869 127.286 227.57C122.933 228.073 118.572 228.18 114.199 227.96C111.636 227.83 109.072 227.725 106.516 227.563C103.613 227.378 100.752 226.853 97.9264 226.202C77.8692 221.572 60.5937 211.99 46.3208 197.105C38.5054 188.956 32.3227 179.681 27.5687 169.45C24.1735 162.145 21.4897 154.598 19.7782 146.716C18.7312 141.893 17.9944 137.023 17.5888 132.103C17.2381 127.881 17.1448 123.654 17.2948 119.427C17.5915 111.06 18.8405 102.832 20.9925 94.7385C24.463 81.6917 30.1187 69.6363 37.303 58.2392C43.1325 48.9895 50.3725 41.0119 58.7189 34.0041C69.2107 25.1957 80.6377 17.8828 93.2796 12.5371C101.777 8.94142 110.57 6.37778 119.676 4.88495C122.622 4.40052 125.579 3.97951 128.529 3.52327C128.86 3.47296 129.188 3.39094 129.635 3.30151C129.516 2.31476 129.404 1.35265 129.285 0.365897C129.052 0.355993 128.886 0.331803 128.724 0.342847C125.572 0.524688 122.417 0.671286 119.27 0.909522C111.779 1.47405 104.389 2.66227 97.1137 4.54819C83.3172 8.12395 70.4755 13.8756 58.666 21.8171C50.9174 27.0288 43.5157 32.7224 37.0197 39.4922C32.5976 44.0985 28.6314 49.0737 25.0187 54.3404C19.7522 62.0197 14.9273 69.9587 11.0134 78.4237C9.09684 82.5716 7.44849 86.8209 6.24132 91.231C5.29235 94.7063 4.27987 98.164 3.35208 101.646C2.26033 105.735 1.62365 109.911 1.14924 114.115C0.619793 118.798 0.365397 123.494 0.368418 128.204C0.372574 134.529 0.834972 140.817 1.74858 147.075C3.00392 155.687 5.12596 164.079 8.09005 172.259C8.74044 174.056 9.23234 175.908 9.92852 177.687C12.4753 184.194 15.8282 190.283 19.6599 196.114C30.5387 212.673 44.5917 225.905 61.4641 236.253C72.4309 242.976 84.2864 247.32 96.7755 250.101C100.833 251.005 104.948 251.417 109.075 251.778C114.111 252.215 119.153 252.349 124.201 252.175C142.755 251.54 160.297 247.118 176.56 238.007C181.02 235.509 185.242 232.652 189.252 229.485C194.561 225.292 199.261 220.47 203.72 215.409C210.9 207.259 216.882 198.315 221.38 188.41C224.978 180.496 227.475 172.25 228.893 163.669C229.551 159.687 229.913 155.677 230.187 151.658C230.208 151.376 230.224 151.097 230.382 150.815C230.388 152.993 230.419 155.172 230.398 157.351C230.289 167.405 228.509 177.183 225.472 186.745C221.849 198.16 216.514 208.741 209.847 218.666C209.738 218.829 209.629 218.998 209.503 219.147C206.793 222.282 204.084 225.416 201.368 228.544C188.956 242.84 173.847 253.354 156.398 260.586C148.207 263.979 139.767 266.598 131.138 268.615C130.863 268.679 130.592 268.747 130.222 268.84C130.331 269.841 130.436 270.835 130.544 271.832C130.714 271.828 130.883 271.828 131.052 271.827Z" fill="black" fill-opacity="0.1"/>
</svg>
