<svg width="48" height="48" viewBox="0 0 48 48" fill="none" xmlns="http://www.w3.org/2000/svg">
<path d="M31.1898 8.40918H16.8098C12.1698 8.40918 8.40918 12.1705 8.40918 16.8105V31.1892C8.40918 35.8292 12.1705 39.5905 16.8105 39.5905H31.1892C35.8292 39.5905 39.5905 35.8292 39.5905 31.1892V16.8105C39.5905 12.1705 35.8298 8.40918 31.1898 8.40918Z" stroke="#F0F0F0" stroke-miterlimit="10"/>
<path d="M23.9998 31.527C28.1567 31.527 31.5265 28.1572 31.5265 24.0003C31.5265 19.8434 28.1567 16.4736 23.9998 16.4736C19.8429 16.4736 16.4731 19.8434 16.4731 24.0003C16.4731 28.1572 19.8429 31.527 23.9998 31.527Z" stroke="#F0F0F0" stroke-miterlimit="10"/>
<path d="M33.1395 16.4734C34.0302 16.4734 34.7522 15.7514 34.7522 14.8607C34.7522 13.9701 34.0302 13.248 33.1395 13.248C32.2489 13.248 31.5269 13.9701 31.5269 14.8607C31.5269 15.7514 32.2489 16.4734 33.1395 16.4734Z" fill="#F0F0F0"/>
</svg>
