<svg width="40" height="40" viewBox="0 0 40 40" fill="none" xmlns="http://www.w3.org/2000/svg">
<path d="M20 35.4167V15.4792C20 14.3575 20.4456 13.2818 21.2387 12.4887C22.0318 11.6956 23.1075 11.25 24.2291 11.25C26.3108 11.25 27.61 11.8667 28.5008 13.0192M16.4175 19.4067H24.8758" stroke="#F0F0F0" stroke-linecap="round" stroke-linejoin="round"/>
<path d="M32.0835 4.58301H7.91683C7.03277 4.58301 6.18493 4.9342 5.55981 5.55932C4.93469 6.18444 4.5835 7.03229 4.5835 7.91634V32.083C4.5835 32.9671 4.93469 33.8149 5.55981 34.44C6.18493 35.0652 7.03277 35.4163 7.91683 35.4163H32.0835C32.9676 35.4163 33.8154 35.0652 34.4405 34.44C35.0656 33.8149 35.4168 32.9671 35.4168 32.083V7.91634C35.4168 7.03229 35.0656 6.18444 34.4405 5.55932C33.8154 4.9342 32.9676 4.58301 32.0835 4.58301Z" stroke="#F0F0F0" stroke-linecap="round" stroke-linejoin="round"/>
</svg>
