<?xml version="1.0" encoding="UTF-8"?>
<svg id="Layer_1" data-name="Layer 1" xmlns="http://www.w3.org/2000/svg" viewBox="0 0 40.42 47.89">
  <defs>
    <style>
      .cls-1 {
        stroke-width: 0px;
      }
    </style>
  </defs>
  <path class="cls-1" d="M12.16,47.89v-1.38h21.64c.03.46.05.92.08,1.38H12.16Z"/>
  <path class="cls-1" d="M40.42,8.88c-1.3,1.48-2.51,2.84-3.71,4.21-4.26,4.83-8.52,9.66-12.78,14.49-.13.15-.23.38-.24.57-.01,5.05,0,10.1,0,15.16,0,.08,0,.15.02.29h7.25v1.4h-15.95v-1.38h7.26v-.54c0-4.94,0-9.89-.01-14.83,0-.24-.1-.52-.25-.7-2.62-2.99-5.26-5.97-7.88-8.96-.22-.25-.38-.31-.7-.18-5.3,2.18-10.99-.37-12.9-5.76C-1.29,7.56,1.83,1.69,7.09.33c5.17-1.34,10.21,1.46,11.78,6.57.15.49.25,1,.3,1.51.04.39.17.48.55.48,6.68-.01,13.35,0,20.03,0h.68ZM22.98,26.5c3.27-3.71,6.52-7.39,9.77-11.08l-.07-.11h-4.65v-1.39h.53c1.68,0,3.37-.01,5.05,0,.35,0,.57-.11.79-.37.78-.91,1.59-1.8,2.38-2.7.13-.15.25-.3.42-.5H8.74c.99,1.13,1.94,2.18,2.86,3.25.2.24.42.32.72.32,4.19,0,8.39,0,12.58,0h.55v1.43h-12.31c3.32,3.76,6.56,7.44,9.83,11.15ZM10.39,1.45v6.23c1.46-1.46,2.93-2.94,4.41-4.42-1.24-1.03-2.71-1.66-4.41-1.81ZM11.52,8.86h6.23c.07-1.31-.9-3.6-1.82-4.41-1.47,1.47-2.94,2.94-4.41,4.41ZM8.89,7.77V1.45c-1.72.16-3.19.79-4.44,1.83,1.47,1.49,2.93,2.97,4.44,4.49ZM7.67,8.86c-1.44-1.45-2.92-2.93-4.39-4.41-1.03,1.24-1.65,2.71-1.8,4.41h6.19ZM3.32,14.8c1.32-1.33,2.63-2.63,3.93-3.94q-.41-.54-1.11-.54c-1.12,0-2.24,0-3.36,0h-1.3c.15,1.74.78,3.2,1.84,4.48ZM4.43,15.91c1.36,1.12,3.28,1.9,4.5,1.81v-.49c0-1.29-.04-2.59.02-3.88.03-.62-.27-.97-.66-1.3-1.29,1.3-2.57,2.57-3.86,3.87ZM12.88,17.21c-.87-.98-1.65-1.87-2.5-2.83v3.45c.84-.21,1.62-.4,2.5-.62Z"/>
</svg>