<svg width="389" height="381" viewBox="0 0 389 381" fill="none" xmlns="http://www.w3.org/2000/svg">
<path d="M75.0271 105.7C75.1644 105.589 75.3243 105.493 75.4348 105.361C77.3371 103.084 79.1782 100.754 81.1481 98.533C85.8352 93.2448 90.8215 88.2495 96.2787 83.7505C111.349 71.3224 128.066 61.9101 146.849 56.3488C166.768 50.4481 186.971 49.5004 207.406 53.0944C216.143 54.6307 224.667 56.948 232.887 60.2979C236.391 61.7252 239.812 63.3691 243.224 65.0036C247.521 67.064 251.643 69.4492 255.638 72.0413C277.815 86.4378 293.583 106.014 302.952 130.73C306.167 139.212 308.539 147.931 309.485 156.966C311.377 174.988 309.537 192.601 303.297 209.682C300.254 218.006 296.23 225.839 291.221 233.149C286.785 239.62 281.837 245.681 275.813 250.741C267.761 257.505 259.234 263.595 249.523 267.807C233.902 274.584 217.653 277.331 200.677 275.265C196.217 274.722 191.864 273.649 187.501 272.629C182.961 271.568 178.669 269.861 174.467 267.878C169.438 265.501 164.682 262.656 160.175 259.398C150.313 252.273 142.375 243.431 136.721 232.644C130.35 220.496 127.281 207.564 128.066 193.803C128.463 186.849 130.081 180.176 132.52 173.655C134.256 169.005 136.66 164.756 139.496 160.736C144.423 153.759 150.307 147.731 157.668 143.303C166.736 137.848 176.558 135.223 187.184 135.834C191.832 136.101 196.4 136.812 200.794 138.4C204.991 139.917 208.827 142.08 212.309 144.881C215.327 147.307 218.024 150.036 220.235 153.212C225.282 160.467 227.341 168.534 226.559 177.313C226.221 181.103 224.864 184.553 222.577 187.614C221.312 189.304 219.81 190.744 218.09 191.956C215.746 193.613 213.255 194.978 210.413 195.573C207.402 196.2 204.435 196.078 201.584 194.854C198.243 193.418 196.023 190.914 194.964 187.445C194.657 186.443 194.652 185.353 194.481 184.306C194.39 183.741 194.286 183.168 194.115 182.624C193.896 181.929 193.429 181.426 192.749 181.125C191.32 180.497 189.816 180.122 188.267 180.065C187.53 180.038 186.744 180.181 186.052 180.443C181.457 182.166 178.504 185.506 176.964 190.087C175.506 194.424 175.588 198.813 176.62 203.266C177.849 208.57 180.818 212.752 184.694 216.368C186.44 217.997 188.312 219.506 190.223 220.939C193.12 223.103 196.391 224.55 199.878 225.459C213.425 228.99 225.954 226.664 237.469 218.792C243.636 214.577 248.581 209.192 252.475 202.813C257.287 194.928 260.347 186.449 261.262 177.246C262.48 164.963 260.377 153.213 254.883 142.187C251.1 134.589 246.178 127.723 240.062 121.757C236.272 118.061 232.238 114.681 227.722 111.911C215.157 104.207 201.53 100.037 186.758 99.7059C177.701 99.5023 168.786 100.385 160.018 102.762C147.562 106.141 136.607 112.307 126.781 120.559C121.784 124.757 117.236 129.415 113.139 134.503C110.186 138.175 107.588 142.081 105.281 146.185C103.93 148.592 102.556 150.984 101.238 153.403C99.7427 156.15 98.5795 159.053 97.5518 161.998C90.2669 182.901 89.0813 204.111 94.4432 225.632C97.3779 237.415 102.273 248.358 108.857 258.549C113.558 265.827 118.887 272.596 125.077 278.672C128.865 282.39 132.874 285.853 137.119 289.043C140.76 291.783 144.552 294.291 148.485 296.579C156.268 301.106 164.471 304.688 173.069 307.371C186.931 311.694 201.143 313.461 215.632 313.46C227.391 313.46 238.8 311.447 249.962 307.872C263.992 303.377 277.197 297.174 289.309 288.738C297.452 283.069 304.826 276.54 311.404 269.111C313.534 266.708 315.612 264.26 317.719 261.837C317.954 261.565 318.217 261.314 318.555 260.958C319.384 261.632 320.195 262.286 321.025 262.96C320.901 263.178 320.828 263.342 320.725 263.483C318.752 266.246 316.81 269.033 314.789 271.76C309.981 278.251 304.663 284.293 298.776 289.831C287.613 300.332 275.017 308.717 261.021 314.908C251.836 318.969 242.412 322.438 232.528 324.467C225.801 325.849 219.001 326.604 212.137 326.871C202.13 327.259 192.14 327.097 182.194 325.804C177.321 325.169 172.509 324.233 167.804 322.802C164.098 321.673 160.371 320.611 156.671 319.459C152.324 318.107 148.159 316.292 144.062 314.314C139.497 312.11 135.078 309.648 130.794 306.945C125.042 303.315 119.585 299.289 114.414 294.869C107.297 288.789 100.878 282.047 95.1336 274.659C93.8722 273.038 92.4682 271.528 91.2492 269.875C86.7878 263.827 83.1693 257.285 80.0606 250.456C71.2299 231.064 67.2459 210.691 67.5031 189.408C67.6729 175.575 70.5166 162.299 75.1463 149.342C76.6488 145.132 78.6342 141.152 80.6705 137.19C83.1603 132.358 85.9294 127.694 88.9812 123.201C100.196 106.685 114.277 93.2609 131.89 83.6894C136.72 81.0643 141.741 78.8609 146.921 77.0282C153.78 74.603 160.862 73.092 168.024 71.9368C179.556 70.0782 191.123 69.7639 202.715 71.3507C211.979 72.6151 220.914 75.0715 229.535 78.7025C233.536 80.3867 237.392 82.3562 241.207 84.4117C241.475 84.555 241.738 84.6994 242.086 84.7178C240.107 83.4628 238.142 82.1855 236.147 80.9562C226.936 75.2897 217.018 71.3032 206.576 68.5826C194.112 65.3337 181.426 64.1211 168.572 64.4952C168.362 64.5011 168.145 64.5028 167.938 64.5328C163.532 65.2002 159.126 65.8677 154.723 66.5455C134.599 69.6404 116.37 77.3579 99.7866 89.0864C92.0026 94.5925 84.7807 100.769 77.9989 107.463C77.7829 107.677 77.5657 107.884 77.2692 108.168C76.4208 107.495 75.5767 106.83 74.7315 106.159C74.8321 106.007 74.9296 105.854 75.0271 105.7Z" fill="black" fill-opacity="0.2"/>
</svg>
