<?xml version="1.0" encoding="utf-8"?>
<!-- Generator: Adobe Illustrator 28.2.0, SVG Export Plug-In . SVG Version: 6.00 Build 0)  -->
<svg version="1.1" id="Layer_1" xmlns="http://www.w3.org/2000/svg" xmlns:xlink="http://www.w3.org/1999/xlink" x="0px" y="0px"
	 viewBox="0 0 1366 768" style="enable-background:new 0 0 1366 768;" xml:space="preserve">
<g>
	<g>
		<path d="M1070,401.15c-0.15,0.44-0.37,0.88-0.43,1.33c-1.02,7.76-1.83,15.55-3.08,23.28c-2.97,18.4-7.02,36.57-12.82,54.3
			c-16.01,48.97-39.95,93.55-73.93,132.47c-36.03,41.28-79.69,71.93-130.28,92.79c-21.63,8.92-43.89,15.8-66.93,19.95
			c-9.82,1.77-19.76,2.94-29.67,4.12c-12.48,1.48-25.03,1.99-37.59,1.86c-69.73-0.74-132.5-22.07-188.28-63.89
			c-19.14-14.35-36.74-30.42-51.61-49.21c-29.67-37.47-50.45-79.3-60.68-126.16c-4.98-22.84-7.08-45.97-6.25-69.33
			c0.74-20.68,3.2-41.17,9.47-60.95c8.38-26.44,18.77-52.05,34.45-75.15c25.22-37.16,57.53-66.23,98.26-85.61
			c10.7-5.09,21.91-8.85,33.07-12.74c11.61-4.05,23.58-6.31,35.74-7.83c14.56-1.81,29.17-2.19,43.81-1.3
			c32.03,1.94,62.2,10.42,90.03,26.46c31.35,18.06,56.45,42.53,74.14,74.29c8.94,16.05,14.76,33.2,18.54,51.17
			c2.7,12.81,3.35,25.67,2.71,38.63c-1.12,22.5-5.71,44.24-15.85,64.5c-12.49,24.96-30.66,44.68-55.19,58.33
			c-10.73,5.97-21.91,10.84-33.94,13.51c-11.49,2.55-23.09,3.15-34.8,1.83c-10.15-1.14-20.01-3.41-29.42-7.36
			c-21.49-9.03-37.47-24.09-48.13-44.75c-4.6-8.92-6.45-18.52-5.68-28.57c0.43-5.55,1.74-10.88,3.86-16.01
			c2.88-7,6.5-13.56,11.99-18.9c5.82-5.65,12.6-9.57,20.68-10.87c9.47-1.52,17.95,0.92,25.21,7.15c2.1,1.8,3.65,4.22,5.51,6.31
			c1,1.13,2.04,2.26,3.19,3.23c1.47,1.24,3.22,1.7,5.16,1.41c4.07-0.62,7.95-1.91,11.48-3.97c1.68-0.98,3.23-2.41,4.4-3.97
			c7.8-10.33,9.66-21.94,6.62-34.32c-2.88-11.72-9.26-21.38-17.85-29.84c-10.23-10.08-22.75-15.2-36.49-17.78
			c-6.19-1.16-12.49-1.88-18.77-2.37c-9.51-0.73-18.84,0.67-27.89,3.57c-35.16,11.27-59.78,34.15-74.31,67.95
			c-7.78,18.1-11.19,37.08-10.85,56.79c0.42,24.36,5.58,47.57,16.54,69.36c14.64,29.08,35.92,52.28,63.73,69.08
			c19.16,11.58,39.82,19.92,61.87,24.57c13.66,2.88,27.42,4.71,41.39,4.5c38.87-0.59,75.11-10.55,108.48-30.68
			c20.46-12.34,39.07-26.9,55.24-44.58c22.97-25.12,38.66-54.33,48.89-86.59c5.2-16.41,8.75-33.21,10.69-50.33
			c1.39-12.35,1.66-24.72,1-37.12c-0.39-7.27-0.71-14.54-1.19-21.79c-0.55-8.23-2.06-16.34-3.93-24.35
			c-13.3-56.85-40.62-105.77-82.96-146.13c-23.18-22.1-49.54-39.56-78.6-52.96C758,98.91,736.57,91.36,714.2,86.57
			c-13.69-2.93-27.51-4.98-41.47-6.09c-11.98-0.96-23.97-1.19-35.96-0.73c-23.73,0.91-47.06,4.52-70,10.69
			c-36.98,9.95-71.13,26.09-103.4,46.56c-26.19,16.61-48.76,37.21-68.57,60.94c-24.9,29.83-45.55,62.3-60.61,98.2
			c-10.13,24.13-17.33,49.09-21.49,74.93c-1.35,8.36-2.52,16.75-3.79,25.12c-0.14,0.94-0.37,1.87-0.62,3.14
			c-2.8-0.33-5.53-0.64-8.33-0.97c-0.03-0.66-0.1-1.13-0.07-1.59c0.49-8.94,0.88-17.89,1.53-26.82
			c1.54-21.25,4.85-42.22,10.14-62.87c10.03-39.16,26.24-75.63,48.67-109.19c14.72-22.02,30.81-43.06,49.96-61.54
			c13.03-12.58,27.11-23.87,42.02-34.16c21.74-15,44.22-28.75,68.2-39.92c11.75-5.47,23.79-10.18,36.29-13.64
			c9.85-2.72,19.65-5.62,29.52-8.28c11.59-3.13,23.43-4.97,35.35-6.35c13.28-1.54,26.6-2.3,39.96-2.33
			c17.94-0.04,35.78,1.22,53.54,3.76c24.44,3.49,48.26,9.44,71.49,17.78c5.1,1.83,10.36,3.21,15.41,5.17
			c18.48,7.17,35.78,16.63,52.35,27.45c47.06,30.72,84.71,70.47,114.2,118.24c19.16,31.05,31.58,64.64,39.57,100.04
			c2.6,11.5,3.8,23.17,4.86,34.87c1.28,14.28,1.7,28.58,1.25,42.9c-1.65,52.63-14.05,102.42-39.76,148.62
			c-7.05,12.67-15.12,24.67-24.07,36.07c-11.85,15.09-25.49,28.46-39.81,41.15c-23.06,20.43-48.38,37.47-76.44,50.31
			c-22.42,10.27-45.79,17.42-70.12,21.51c-11.29,1.9-22.66,2.96-34.06,3.77c-0.8,0.06-1.59,0.11-2.39,0.56
			c6.18,0,12.36,0.07,18.54-0.01c28.52-0.39,56.24-5.52,83.34-14.21c32.35-10.37,62.32-25.59,90.42-44.58
			c0.46-0.31,0.94-0.62,1.36-0.98c8.87-7.71,17.74-15.42,26.59-23.15c40.45-35.32,70.15-78.26,90.52-127.81
			c9.56-23.26,16.92-47.22,22.57-71.71c0.18-0.78,0.37-1.55,0.63-2.6c2.84,0.3,5.66,0.59,8.49,0.89
			C1070,400.19,1070,400.67,1070,401.15z"/>
	</g>
</g>
</svg>
