<?xml version="1.0" encoding="UTF-8"?>
<svg id="Layer_1" data-name="Layer 1" xmlns="http://www.w3.org/2000/svg" viewBox="0 0 151.41 479.96">
  <defs>
    <style>
      .cls-1 {
        stroke-width: 0px;
      }
    </style>
  </defs>
  <path class="cls-1" d="M108.23,62.12c3.08-15.31,6.09-30.28,9.1-45.25.69-3.42,1.42-6.84,2.01-10.28.7-4.1,2.51-7.03,7.17-6.53,3.87.41,5.62,3.96,4.63,8.91-3.16,15.81-6.36,31.6-9.51,47.41-.35,1.74-.5,3.53-.8,5.74,7.62,0,14.93-.03,22.23,0,6.43.04,8.33,1.92,8.33,8.35.01,133.81.01,267.62,0,401.43,0,6.16-1.87,8.03-8.06,8.03-45.16.02-90.32.02-135.48,0-6.14,0-7.86-1.95-7.86-8.73-.01-44.33,0-88.65,0-132.98,0-88.65,0-177.3,0-265.95,0-8.95,1.19-10.16,10.01-10.16,30.83,0,61.66,0,92.48,0,1.81,0,3.62,0,5.73,0ZM105.64,137.01c-3.81,19.16-7.55,37.93-11.28,56.7-9.25,46.46-18.48,92.92-27.76,139.37-.97,4.83-3.66,6.99-7.33,6.19-3.77-.82-5.3-3.78-4.36-8.54,11.06-55.61,22.13-111.23,33.19-166.84,1.7-8.53,3.31-17.08,5.23-27-7.76,2.76-14.43,4.77-20.81,7.46-13.79,5.82-28.05,8.25-42.93,6.74-5.72-.58-11.4-1.61-17.31-2.46v318.96h127.13v-4.81c0-104.64,0-209.28,0-313.92,0-.83.22-1.75-.06-2.48-.42-1.11-.93-2.66-1.83-3.05-10-4.36-20.35-7.17-31.89-6.34ZM12.53,74.29c-.23,1.07-.48,1.71-.48,2.34-.03,18.49.04,36.98-.11,55.46-.03,3.22,1.85,3.93,4.16,4.53,16.9,4.4,33.46,3.82,49.91-2.53,8.79-3.39,18.03-5.6,26.98-8.59,1.35-.45,2.95-2.08,3.24-3.43,2.57-12.01,4.87-24.08,7.24-36.14.74-3.79,1.45-7.58,2.23-11.66H12.53ZM139.14,74.12c-3.04,0-5.82,0-8.6,0-12.23,0-12.33-.02-14.78,11.9-2.61,12.67-5,25.38-7.41,37.65,10.53,2.15,20.69,4.22,30.79,6.28v-55.83Z"/>
  <path class="cls-1" d="M56.75,401.12c-.65-.16-2.31-.39-3.82-1-6.32-2.55-12.63-5.12-18.87-7.85-6.16-2.7-8.66-8.15-6.33-14.29,2.6-6.83,5.45-13.57,8.48-20.23,2.58-5.67,7.86-7.88,13.67-5.67,6.98,2.66,13.88,5.55,20.68,8.64,5.48,2.49,7.69,8.01,5.48,13.81-2.59,6.83-5.53,13.53-8.49,20.21-1.84,4.16-5.11,6.44-10.81,6.38ZM57.11,388.9c2.57-6.17,4.9-11.78,7.41-17.8-6.02-2.5-11.76-4.88-17.85-7.42-2.52,6.08-4.9,11.8-7.38,17.78,6.06,2.53,11.69,4.88,17.82,7.43Z"/>
  <path class="cls-1" d="M90.31,451.9c-2.51-1.51-5.71-2.55-7.58-4.73-4.86-5.67-9.28-11.74-13.6-17.84-3.55-5-2.75-10.73,2.07-14.64,5.81-4.71,11.77-9.25,17.88-13.56,4.83-3.41,10.48-2.54,14.25,2.1,4.61,5.67,9.06,11.49,13.33,17.42,3.92,5.46,3.06,11.14-2.23,15.38-5.58,4.47-11.26,8.83-17.07,12.98-1.79,1.28-4.17,1.75-7.06,2.89ZM94.79,411.71c-5.2,3.99-10.12,7.77-15.25,11.71,4.04,5.32,7.71,10.16,11.63,15.32,5.38-4.1,10.31-7.87,15.37-11.73-4.12-5.36-7.84-10.2-11.75-15.3Z"/>
  <path class="cls-1" d="M41.11,222.28c-6.8.06-10.53-2.46-12.2-7.59-2.21-6.79-4.28-13.63-6.15-20.52-1.75-6.46,1.02-11.58,7.44-13.71,6.77-2.25,13.62-4.31,20.51-6.18,6.14-1.66,11.41,1.19,13.41,7.24,2.19,6.62,4.19,13.3,6.01,20.04,1.97,7.32-.96,12.34-8.22,14.54-7.45,2.26-14.93,4.44-20.8,6.18ZM52.97,186.12c-6.3,1.9-12.12,3.65-18.4,5.54,1.88,6.31,3.65,12.24,5.51,18.49,6.48-1.99,12.4-3.8,18.45-5.66-1.91-6.31-3.64-12.01-5.57-18.37Z"/>
  <path class="cls-1" d="M130.66,304.1c.11,6.99-2.84,11.19-8.11,12.5-7.26,1.8-14.58,3.38-21.94,4.72-5.78,1.04-10.69-2.2-12.11-7.87-1.78-7.1-3.36-14.25-4.81-21.42-1.24-6.12,2.07-11.35,8.23-12.86,7.11-1.74,14.27-3.26,21.45-4.68,5.13-1.02,10.33,1.39,11.73,6.21,2.4,8.29,4.03,16.79,5.57,23.4ZM114.4,286.51c-6.4,1.41-12.31,2.71-18.67,4.11,1.41,6.42,2.71,12.35,4.12,18.75,6.48-1.46,12.52-2.82,18.77-4.23-1.48-6.54-2.79-12.32-4.21-18.63Z"/>
</svg>