<?xml version="1.0" encoding="UTF-8"?>
<svg id="Layer_1" data-name="Layer 1" xmlns="http://www.w3.org/2000/svg" viewBox="0 0 338.89 415.16">
  <defs>
    <style>
      .cls-1 {
        stroke-width: 0px;
      }
    </style>
  </defs>
  <path class="cls-1" d="M99.58,121.61c-41.88,22.88-83.33-.33-95.62-33.69C-8.63,53.74,9.83,15.26,44.91,3.23c34.93-11.98,81.77,9.79,86.47,57.47h5.91c61.99,0,123.97-.04,185.96.1,3.69,0,7.71.75,11,2.34,5.51,2.66,6.07,8.13,1.94,12.64-43.28,47.29-86.58,94.55-129.76,141.92-1.61,1.77-2.95,4.58-2.95,6.91-.16,57.99-.13,115.97-.11,173.96,0,1.3.18,2.6.32,4.59,1.96,0,3.73,0,5.5,0,10.5,0,21-.06,31.49.06,3.76.04,6.47,1.69,6.43,5.99-.04,4.22-2.51,5.92-6.43,5.92-28.99.02-57.99,0-86.98.02-3.95,0-6.49-1.74-6.61-5.82-.13-4.51,2.82-6.11,6.82-6.14,10.33-.07,20.66-.03,30.99-.03,1.8,0,3.59,0,5.99,0v-5.35c0-57.49.03-114.97-.1-172.46,0-2.4-.87-5.4-2.43-7.12-29-31.91-58.17-63.68-87.31-95.46-.33-.36-.77-.62-1.46-1.16ZM196.81,209.49c30.9-33.76,61.16-66.82,91.69-100.16-1.6-.67-2.5-1.1-3.43-1.43-29.65-10.66-59.43-10.74-88.84.31-22.45,8.43-45.28,13.16-69.28,11.57-4.17-.28-8.34-.69-13.76-1.14,28.35,30.8,55.78,60.61,83.62,90.85ZM71.13,72.98c9.13,10.1,17.65,19.59,26.27,28.97.82.89,2.3,1.32,3.56,1.66,25.67,7.08,51.21,6.96,76.68-1.19,12.65-4.05,25.21-8.93,38.2-11.31,26.49-4.85,52.73-2.99,77.94,7.46,2.69,1.11,4.48.64,6.43-1.68,4.28-5.1,8.92-9.89,13.39-14.82,2.6-2.87,5.15-5.77,8.11-9.09H71.13ZM118.37,60.71c-.34-21.51-18.85-42.27-41.79-47.48-23.52-5.34-48.08,6.68-59.03,28.9-11.01,22.33-5.32,48.85,13.97,65.06,16.54,13.9,44.13,16.4,59.26,5.21-10.96-12.07-21.92-24.12-32.85-36.19-3.95-4.35-3.68-9.59,1.36-12.55,2.98-1.75,6.82-2.75,10.3-2.82,14.48-.3,28.97-.13,43.46-.13,1.78,0,3.55,0,5.34,0Z"/>
  <path class="cls-1" d="M71.25,34.8c0,2.49.74,5.32-.2,7.38-.99,2.15-3.57,4.89-5.5,4.93-1.99.04-5.52-2.68-5.77-4.54-.75-5.53-.45-11.25-.09-16.87.21-3.33,2.84-4.85,6.01-4.64,3.13.2,5.35,1.89,5.54,5.27.16,2.81.03,5.65.03,8.47,0,0-.01,0-.02,0Z"/>
  <path class="cls-1" d="M34.24,71.38c-2.65,0-5.33.25-7.94-.06-3.38-.41-5.38-2.47-5.25-6.06.14-3.56,2.15-5.53,5.64-5.64,4.96-.16,9.94-.14,14.91-.04,3.55.07,5.47,2.06,5.66,5.6.2,3.88-1.98,5.86-5.57,6.26-2.46.27-4.96.05-7.45.05v-.1Z"/>
  <path class="cls-1" d="M38.32,98.3c-5.18-.66-7.59-5.87-4.58-9.4,3.42-4.02,7.14-7.92,11.31-11.12,1.55-1.18,5.48-1.14,6.99.05,1.5,1.17,2.62,5.5,1.69,6.68-3.76,4.75-8.32,8.88-12.73,13.09-.71.67-2.15.57-2.68.7Z"/>
  <path class="cls-1" d="M37.8,31.97c1.96.93,3.53,1.27,4.55,2.21,3.63,3.37,7.16,6.85,10.54,10.46,2.37,2.54,2.36,5.44-.07,7.96-2.41,2.51-5.38,2.82-7.97.47-3.8-3.44-7.59-6.97-10.8-10.93-1.17-1.44-1.38-4.47-.73-6.32.57-1.62,2.95-2.61,4.5-3.86Z"/>
  <path class="cls-1" d="M98.77,37.97c-.68,1.74-.83,3.04-1.56,3.8-3.75,3.97-7.48,7.99-11.55,11.61-2.38,2.12-5.22,1.79-7.57-.62-2.31-2.36-2.78-5.18-.62-7.58,3.64-4.06,7.5-7.98,11.7-11.44,1.26-1.04,4.26-1.03,5.9-.27,1.63.75,2.56,3.03,3.7,4.5Z"/>
</svg>