<?xml version="1.0" encoding="UTF-8"?>
<svg id="Layer_1" data-name="Layer 1" xmlns="http://www.w3.org/2000/svg" viewBox="0 0 13.68 12">
  <defs>
    <style>
      .cls-1 {
        stroke-width: 0px;
      }
    </style>
  </defs>
  <path class="cls-1" d="M13.68,1.6c-.47.14-.95.39-1.42.39-3.61.03-7.22.01-10.83.02-.72,0-1.41-.05-1.41-.99C.02.11.69,0,1.42,0c3.61,0,7.22-.01,10.83.02.48,0,.95.25,1.43.39v1.19Z"/>
  <path class="cls-1" d="M13.68,11.56c-.59.14-1.19.38-1.78.39-3.38.04-6.75.02-10.13.02-.24,0-.54.09-.69-.02-.39-.28-.72-.66-1.08-1,.36-.33.71-.93,1.07-.94,3.85-.07,7.69-.05,11.54-.03.36,0,.71.25,1.07.39v1.19Z"/>
  <path class="cls-1" d="M13.68,6.58c-.51.14-1.03.39-1.54.39-3.53.03-7.06.02-10.59.02-.74,0-1.53,0-1.53-1s.79-1.01,1.53-1c3.53,0,7.06-.01,10.59.02.52,0,1.03.25,1.54.39v1.19Z"/>
</svg>