<?xml version="1.0" encoding="UTF-8"?>
<svg id="Layer_1" data-name="Layer 1" xmlns="http://www.w3.org/2000/svg" viewBox="0 0 276.38 415.74">
  <defs>
    <style>
      .cls-1 {
        stroke-width: 0px;
      }
    </style>
  </defs>
  <path class="cls-1" d="M24.77,109.26C3.28,103.16-5.91,84.79,3.96,67.09c2.69-4.82,7.93-8.22,11.94-12.33,1.17-1.2,2.88-2.49,3.08-3.92,3.29-23.82,31.45-38.78,55.07-21.96.92-1.52,1.81-3.02,2.72-4.49C87.26,7.47,102.69-.98,122.35.09c13.58.74,25.15,7.07,34.13,17.66,1.16,1.37,3.08,2.96,4.65,2.96,9.29.03,17.21,3.34,24.64,9.43,11.4-12.12,25.14-16.96,40.99-10.44,15.62,6.43,22.3,19.18,22.05,36.1,15.09,2.2,25.33,9.94,26.13,25.86.71,14.19-7.4,22.89-20.75,27.32.68,19.06,1.35,38.01,2.03,56.96,2.3,63.58,4.62,127.16,6.86,190.74.11,3.12.92,5,3.95,6.56,5.88,3.03,9.08,8.23,9.19,14.98.12,6.83.26,13.67,0,20.49-.39,10.12-7.68,17.01-17.73,17.01-78.98.02-157.95.02-236.93,0-9.99,0-17.39-7.13-17.66-17.1-.18-6.66-.08-13.33-.04-19.99.04-7.19,3.47-12.52,9.73-15.65,2.76-1.38,3.35-3.03,3.43-5.76,2.54-80.74,5.14-161.47,7.73-242.2.06-1.81,0-3.63,0-5.75ZM35.32,109.33c-2.72,84.11-5.41,167.57-8.1,250.99h225.7c-3.07-83.76-6.12-167.09-9.19-250.98-7.08,0-13.7-.03-20.33,0-7.11.03-8.85,1.76-8.87,8.89-.03,14.66-.05,29.33,0,43.99.03,6.68-1.39,12.89-5.36,18.37-7.15,9.85-19.47,14.02-30.97,10.5-11.73-3.6-19.75-13.59-19.99-25.86-.3-15.49-.12-30.99-.15-46.48-.02-7.66-1.75-9.41-9.38-9.41-35.82,0-71.65,0-107.47,0h-5.88ZM89.78,98.85c19.66,0,39.32-.01,58.98,0,13.34,0,19.87,6.58,19.89,20.01.02,14.83-.21,29.66.16,44.48.09,3.78,1.3,8,3.32,11.16,4.24,6.64,12.06,8.9,19.34,6.63,7.67-2.4,12.52-8.73,12.61-17.29.17-15.49.03-30.99.07-46.48.03-11.63,6.67-18.39,18.21-18.49,8.33-.08,16.66-.07,24.99,0,7.16.06,12.66-2.78,15.8-9.3,2.77-5.75,2.19-11.5-1.73-16.48-4.42-5.62-10.29-7.47-17.38-5.68-5.51,1.39-8.36-1.64-7.04-7.11,3.35-13.86-1.87-25.75-13.55-30.82-11.89-5.17-23.89-.95-31.69,11.15-3.17,4.92-6.34,5.14-10.18.51-5.99-7.23-13.59-10.59-22.9-9.58-3.65.4-5.87-.96-7.91-3.85-9.18-13.01-21.85-19.04-37.58-16.56-16.06,2.53-26.53,12.13-31.47,27.8-.65,2.05-2.74,4.51-4.64,5.02-1.54.41-4.25-1.4-5.65-2.94-7.34-8.12-17.06-11.05-26.58-7.65-9.29,3.32-15.28,11.6-15.64,22.25-.13,3.69-1.45,5.78-4.95,7.06-9.98,3.64-14.92,11.97-13.25,21.81,1.58,9.31,8.48,14.35,19.81,14.36,19.66.02,39.32,0,58.98,0ZM139.95,405.81c38.65,0,77.31.01,115.96,0,7.37,0,10-2.61,10.05-9.81.04-4.67.02-9.33,0-14-.02-8.67-2.23-10.85-11.02-10.85-50.16,0-100.32,0-150.48,0-26.5,0-52.99,0-79.49,0-8.43,0-10.82,2.35-10.85,10.56-.02,4.5-.02,9,0,13.5.04,8.15,2.54,10.61,10.86,10.61,38.32,0,76.64,0,114.96,0Z"/>
  <path class="cls-1" d="M79.72,282.57c-.09-18.8,15.22-34.27,33.82-34.19,18.83.08,34,15.22,34.11,34.03.11,18.65-15.25,34.11-33.95,34.16-18.78.05-33.9-15.08-33.99-34.01ZM113.59,306.13c13.29-.07,23.62-10.52,23.56-23.84-.06-13.12-10.86-23.7-23.98-23.51-12.65.19-23.39,11.25-23.22,23.93.17,12.88,10.88,23.49,23.64,23.43Z"/>
  <path class="cls-1" d="M225.1,244.15c-.17,16.66-13.55,29.82-30.02,29.53-16.12-.29-29.24-13.87-29.08-30.12.16-16.01,13.94-29.5,29.92-29.29,16.28.22,29.35,13.6,29.18,29.88ZM176.58,243.56c-.18,10.81,8.25,19.62,18.89,19.74,10.35.12,19.05-8.4,19.28-18.89.24-10.75-8.24-19.57-18.92-19.67-10.47-.1-19.08,8.31-19.25,18.82Z"/>
</svg>