<?xml version="1.0" encoding="UTF-8"?>
<svg id="Layer_1" data-name="Layer 1" xmlns="http://www.w3.org/2000/svg" viewBox="0 0 247.73 311.22">
  <defs>
    <style>
      .cls-1 {
        stroke-width: 0px;
      }
    </style>
  </defs>
  <path class="cls-1" d="M.08,146.76c0-46.14,0-92.28,0-138.42C.08.76.84,0,8.33,0,85.3,0,162.26,0,239.23,0c7.01,0,8.07,1.07,8.09,8.09.15,44.62.41,89.24.41,133.86,0,47.46-.24,94.91-.41,142.37-.04,12.17-6.4,21.74-17.19,25.5-2.6.9-5.54,1.13-8.32,1.13-65.31.06-130.61-.21-195.92.27C13.3,311.31-.12,299.99,0,285.19c.26-32.48.08-64.97.08-97.46,0-13.66,0-27.32,0-40.97ZM65.24,135.79c2.22-2.1,3.44-3.19,4.59-4.34,16.26-16.25,32.51-32.51,48.78-48.75,5.31-5.31,7.15-5.32,12.36-.12,16.27,16.25,32.55,32.48,48.72,48.83,1.23,1.24,1.62,3.32,2.53,5.27,18.3-18.3,34.6-34.73,51.08-50.97,2.6-2.56,3.71-5.15,3.69-8.73-.09-13.64.05-27.28.08-40.92.02-8.4,0-16.8,0-25.14H11.19c-.19.89-.38,1.37-.38,1.85-.03,21.12-.17,42.25.11,63.36.04,2.62,1.83,5.75,3.75,7.73,11.59,11.94,23.52,23.55,35.2,35.39,5.23,5.3,10.15,10.91,15.37,16.55ZM65.1,149.51c-17.75,17.97-34.65,34.97-51.31,52.19-1.23,1.27-1.53,4.33-1.05,6.26,6.05,24.16,28.6,42.28,53.66,42.47,38.15.3,76.31.27,114.47.01,25.02-.17,47.41-18.17,53.85-42.39.83-3.11.37-5.26-2.03-7.5-5.35-5-10.45-10.27-15.62-15.47-11.37-11.44-22.71-22.9-34.25-34.53-1.34,1.22-2.33,2.06-3.25,2.98-16.75,16.7-33.49,33.42-50.25,50.12-4.55,4.54-6.72,4.54-11.25,0-12.73-12.72-25.48-25.41-38.12-38.22-4.9-4.96-9.52-10.2-14.83-15.92ZM11,232.1c-.06.35-.25.95-.25,1.55,0,17-.14,34,.07,50.99.12,10.12,6.31,16.08,16.45,16.08,64.16.05,128.31.05,192.47,0,10.76,0,16.79-6.06,16.82-16.72.06-16.16.02-32.33,0-48.49,0-1.21-.26-2.42-.48-4.39-1.07,1.28-1.59,1.87-2.07,2.49-13.78,17.89-31.91,27.51-54.54,27.64-37.49.23-74.99.16-112.48.01-14.41-.06-27.68-4.33-39.01-13.32-6.02-4.77-11.29-10.49-16.98-15.86ZM74.71,142.34c16.82,16.45,33.74,33,51.39,50.26,15.51-15.61,32.53-32.74,49.09-49.4-17.16-17.13-33.96-33.9-50.51-50.42-16.49,16.35-33.25,32.97-49.97,49.55ZM56.35,141.99c-14.06-14.08-29.05-29.09-44.86-44.93v90.82c.35.37.71.75,1.06,1.12,14.67-15.74,29.34-31.49,43.8-47.01ZM192.04,142.93c15.06,14.64,30.1,29.26,44.07,42.83v-87.25c-14.99,15.1-29.47,29.7-44.07,44.42Z"/>
</svg>