<?xml version="1.0" encoding="UTF-8"?>
<svg id="Layer_1" data-name="Layer 1" xmlns="http://www.w3.org/2000/svg" viewBox="0 0 346.52 364.19">
  <defs>
    <style>
      .cls-1 {
        stroke-width: 0px;
      }
    </style>
  </defs>
  <path class="cls-1" d="M65.12,144.42c0-7.07-.12-14.54.04-22,.14-6.77,1.98-8.43,8.84-8.43,87.66,0,175.33,0,262.99,0,7.24,0,8.99,1.47,9.28,8.56,1.01,24.21-1.14,48.26-4.42,72.2-4.96,36.25-13.53,71.55-28.76,105.02-10.21,22.45-23.01,43.17-40.44,60.76-1.96,1.98-5.43,3.47-8.2,3.49-38.66.22-77.33.23-116,0-2.92-.02-6.56-1.59-8.62-3.68-18.76-18.96-31.87-41.65-42.85-65.73-1.12-2.45-3.4-4.87-5.76-6.19-20.46-11.43-41.83-21.31-60.12-36.36C9.73,234.47-.79,211.97.05,184.33c.15-4.94.93-9.99,2.3-14.73,4.53-15.66,16.69-25.42,33.36-26.15,9.57-.42,19.2.58,29.41.97ZM77.91,126.28c-.25.75-.54,1.21-.53,1.67.04,3.16.14,6.32.23,9.48,1.23,43.46,7.28,86.15,20.79,127.59,10.04,30.79,24.1,59.44,46,83.77,2.2,2.45,4.39,3.47,7.69,3.46,33.98-.11,67.97-.39,101.94.16,8.01.13,12.74-2.85,17.47-8.6,23.77-28.87,37.85-62.35,47.48-98.01,8.88-32.92,13.13-66.54,14.77-100.53.3-6.26.04-12.55.04-19H77.91ZM87.99,273.45c-.85-2.61-1.41-4.12-1.83-5.66-3.44-12.49-7.83-24.81-10.07-37.51-4.01-22.72-6.77-45.66-9.88-68.53-.34-2.51-.89-4.14-3.57-4.36-8.42-.68-16.89-2.27-25.25-1.8-14.58.82-22.52,8.31-24.61,22.8-2.96,20.46,2.01,39.1,15.75,54.75,16.03,18.26,37.73,28.34,59.47,40.31Z"/>
  <path class="cls-1" d="M170.04,0c3.79-.02,6.61,1.32,6.85,5.54.26,4.51-2.65,5.94-6.56,6.52-9.98,1.47-15.17,9.81-11.35,18.33,2.41,5.38,6.83,7.76,12.73,7.98,12.49.47,22.92,10,24.21,21.84,1.38,12.71-6.01,24.01-18.19,27.53-2.2.64-4.6.84-6.9.83-3.22,0-5.4-1.69-5.78-5.03-.39-3.45,1.05-5.82,4.6-6.6.97-.21,1.97-.32,2.96-.47,7.22-1.12,11.65-6.3,11.43-13.37-.21-6.98-5.56-12.31-12.82-12.78-12.74-.81-21.43-7.5-24.62-18.95C142.39,16.27,154.52.03,170.04,0Z"/>
  <path class="cls-1" d="M220.34.03c3.89-.18,7.12.77,7.53,5.32.4,4.46-2.38,6.09-6.35,6.69-8.4,1.26-13.08,6.46-12.68,13.84.39,7.26,5.79,12.01,14.17,12.45,13.52.71,24.07,11.74,24.07,25.17,0,13.09-10.19,24.15-23.07,25.04-5.07.35-7.76-1.39-8-5.3-.27-4.47,2.42-6.06,6.4-6.65,8.61-1.28,13-6.18,12.61-13.79-.37-7.29-5.73-12.05-14.11-12.51-13.79-.75-24.21-11.84-24.1-25.63.11-12.92,10.78-24.09,23.52-24.63Z"/>
</svg>