<?xml version="1.0" encoding="UTF-8"?>
<svg id="Layer_1" data-name="Layer 1" xmlns="http://www.w3.org/2000/svg" viewBox="0 0 169.95 414.02">
  <defs>
    <style>
      .cls-1 {
        stroke-width: 0px;
      }
    </style>
  </defs>
  <path class="cls-1" d="M90.81,233.1v168.9c1.59,0,3.17,0,4.74,0,10.66,0,21.33-.03,31.99.01,5.13.02,7.49,1.99,7.44,5.99-.05,3.94-2.5,5.98-7.51,5.98-28.49.02-56.98,0-85.47.03-4.12,0-7.38-.98-7.64-5.82-.22-4.15,2.31-6.16,7.75-6.18,11.96-.04,23.92-.01,36.15-.01v-168.35c-7.9-1.8-15.86-2.89-23.31-5.46-24.42-8.44-38.6-26.65-46.63-50.43C-.42,151.84-.91,125.06.77,98.23c1.92-30.63,7.37-60.74,15.63-90.32C18.32,1.01,19.69,0,26.93,0c39.65,0,79.31,0,118.96,0,7.19,0,8.02.55,9.82,7.78,10.25,41.06,16.24,82.62,13.62,125.05-1.37,22.26-5.59,43.88-16.91,63.58-12.17,21.18-30.49,32.82-54.6,35.7-2.28.27-4.56.64-7.02.99ZM18.55,61.58c-.47.96-.8,1.38-.87,1.84-4.67,30.23-7.3,60.51-2.22,90.97,3.06,18.38,9.51,35.21,22.13,49.41,20.4,22.96,66.79,21.24,86.43,7.86,16.47-11.21,24.79-27.51,29.41-46.01,8.75-35.07,6.02-70.38,1.11-105.65-.15-1.07-1.04-2.44-1.98-2.93-21.39-11.42-43.17-13.16-65.75-3.24-9.23,4.06-18.75,7.96-28.53,10.16-13.11,2.95-26.48,1.79-39.74-2.4ZM145.32,12H37.89c-9.7,0-9.86-.04-12.19,9.45-2.2,8.96-4.01,18.01-6,27.02,1.95.73,3.01,1.2,4.11,1.52,18.46,5.29,36.23,3.37,53.22-5.42,14.24-7.37,29.31-11.17,45.25-9.43,9.75,1.06,19.33,3.7,29.32,5.7-1.97-9.01-4.08-18.7-6.3-28.83Z"/>
</svg>