<?xml version="1.0" encoding="UTF-8"?>
<svg id="Layer_1" data-name="Layer 1" xmlns="http://www.w3.org/2000/svg" viewBox="0 0 525.02 449.99">
  <defs>
    <style>
      .cls-1 {
        stroke-width: 0px;
      }
    </style>
  </defs>
  <path class="cls-1" d="M18.67,206.14c-3.62,0-6.44.1-9.24-.02-5.36-.23-9.13-3.32-9.24-8.55-.27-12.99-.25-25.99.01-38.99.1-4.96,3.84-8.16,8.78-8.55,1.49-.12,3-.04,4.5-.04,77.66,0,155.32,0,232.98,0h6.72c0-6.35.13-12.45-.12-18.54-.04-1.06-1.53-2.4-2.68-3.01-10.92-5.84-16.2-14.88-15.96-27.24.1-5.5-.08-11,.05-16.5.14-6.01,3.69-9.61,9.75-9.67,12.16-.12,24.33-.12,36.5,0,6.25.06,9.74,3.73,9.84,10.1.09,6,.11,12,0,18-.22,11.13-5.32,19.46-15.05,24.7-2.73,1.47-3.91,2.95-3.76,6.07.25,5.13.07,10.27.07,16.09h6.2c77.99,0,155.98,0,233.98,0,10.26,0,13.01,2.75,13.03,13.05.02,10.17.02,20.33,0,30.5-.02,9.72-2.86,12.59-12.4,12.62-1.81,0-3.62,0-6.27,0v6.56c0,74.49,0,148.99,0,223.48,0,11.19-2.62,13.79-13.85,13.79-153.32,0-306.64,0-459.95,0-11.26,0-13.86-2.58-13.86-13.77,0-74.33,0-148.65,0-222.98,0-2.14,0-4.28,0-7.1ZM301.23,299.97c5.5,43.96,10.92,87.33,16.36,130.89h169.53v-224.43H37.82v224.4h38.34c5.46-43.64,10.88-87,16.36-130.84-2.63,0-4.77.03-6.9,0-6.73-.12-10.41-3.4-10.54-9.96-.14-7.16-.31-14.36.3-21.47,1.19-13.69,12.65-24.43,26.37-24.62,19.66-.27,39.33-.28,58.98,0,14.18.2,25.99,11.92,26.67,26.08.33,6.82.21,13.66.05,20.49-.14,5.67-3.82,9.19-9.52,9.46-2.45.11-4.91.02-7.96.02,5.5,44,10.92,87.37,16.36,130.92h21.09c5.45-43.58,10.87-86.95,16.37-130.93-3.16,0-5.79.13-8.4-.03-5.21-.32-8.83-3.75-8.95-8.9-.18-7.49-.36-15.02.14-22.48.84-12.69,12.2-24.21,24.92-24.49,20.65-.47,41.32-.46,61.98,0,12.72.28,24.09,11.75,24.97,24.45.51,7.46.32,14.99.15,22.48-.12,5.16-3.73,8.61-8.92,8.94-2.61.17-5.25.03-8.43.03ZM18.96,187.15h487.03v-17.96H18.96v17.96ZM102.1,374.43h58.35c-3.15-25.1-6.23-49.63-9.32-74.24h-39.76c-3.1,24.83-6.18,49.52-9.27,74.24ZM233.29,374.7h58.42c-3.14-25.03-6.23-49.72-9.32-74.37h-39.8c-3.11,24.89-6.18,49.47-9.29,74.37ZM294.12,394.14h-63.27c-1.53,12.37-3.02,24.46-4.53,36.68h72.39c-1.55-12.38-3.05-24.38-4.58-36.68ZM167.47,430.89c-1.57-12.45-3.09-24.59-4.61-36.65h-63.28c-1.52,12.38-2.99,24.37-4.49,36.65h72.38ZM93.9,280.84h74.57c.08-1.61.18-2.91.2-4.21.12-11.67-2.28-14.12-13.81-14.12-15.3,0-30.59,0-45.89,0-13.34,0-15.59,2.33-15.27,15.79.02.65.11,1.31.21,2.54ZM225.26,280.72h74.52c.09-1.59.19-2.75.21-3.91.17-11.84-2.28-14.3-14.26-14.3-15.33,0-30.66,0-45.98,0-12.66,0-14.97,2.33-14.72,14.83.02.99.13,1.98.23,3.38ZM253.28,94.11c.42,6.16-2.23,12.73,4.41,16.94,3.4,2.15,7.1,1.99,10.3-.43,5.93-4.48,3.17-10.74,3.82-16.5h-18.53Z"/>
  <path class="cls-1" d="M412.51,131.16c-14.98,0-29.97.03-44.95-.01-8.18-.02-11.4-3.44-11.17-11.67.65-22.69,19.23-42.56,42.37-44.17,10.73-.74,21.74-.73,32.34.87,20.84,3.14,36.89,22.42,37.5,43.27.24,8.23-2.98,11.67-11.15,11.7-14.98.04-29.97.01-44.95.01ZM447.74,112.23c-2.87-9.86-12.46-17.67-22.7-18.18-8.31-.42-16.66-.42-24.97,0-10.57.52-20.96,9.11-22.53,18.19h70.2Z"/>
  <path class="cls-1" d="M412.39,56.14c-15.74-.04-28.06-12.56-27.94-28.4C384.56,12.35,397.14-.04,412.61,0c15.62.04,28.09,12.74,27.95,28.47-.13,15.44-12.63,27.72-28.17,27.67ZM412.72,18.86c-5.2-.1-9.24,3.65-9.46,8.78-.22,5.41,3.68,9.64,9.02,9.76,5.35.12,9.48-3.95,9.47-9.32,0-5.17-3.88-9.12-9.03-9.22Z"/>
</svg>