<?xml version="1.0" encoding="UTF-8"?>
<svg id="Layer_1" data-name="Layer 1" xmlns="http://www.w3.org/2000/svg" viewBox="0 0 433.88 530.48">
  <defs>
    <style>
      .cls-1 {
        stroke-width: 0px;
      }
    </style>
  </defs>
  <path class="cls-1" d="M217.04,530.48c-60.65,0-121.3,0-181.95,0-10.4,0-12.93-2.56-12.93-13.06,0-9.16.17-18.33-.13-27.49-.07-2.13-1.24-4.83-2.83-6.21-17.03-14.76-23.41-32.39-16.38-54.53,7.4-23.3,14.07-46.83,21.24-70.2,1.02-3.33.96-5.13-2.45-7.16-11.26-6.72-16.22-19.54-12.92-31.87,3.33-12.46,13.77-20.82,26.91-21.51,1.83-.1,3.66-.08,5.5-.08,117.3,0,234.6-.01,351.89.03,3.81,0,7.77-.02,11.39.96,11.66,3.15,19.11,10.93,21.23,22.77,2.2,12.27-2.21,22.52-12.75,29.27-3.83,2.45-4.1,4.43-2.91,8.29,7.24,23.53,14.09,47.17,21.37,70.68,6.47,20.92.49,38.01-15.51,52.01-3.07,2.69-4.37,5.22-4.22,9.27.32,8.65.1,17.32.09,25.99,0,10.11-2.67,12.82-12.68,12.82-60.65,0-121.3,0-181.95,0ZM216.85,338.73c58.81,0,117.61,0,176.42,0,1.67,0,3.35.09,4.99-.09,5.89-.64,10.07-5.2,10.24-11.04.17-5.77-3.83-10.64-9.67-11.54-1.79-.28-3.65-.17-5.48-.17-117.61,0-235.22,0-352.83,0-1.66,0-3.35-.09-4.99.1-5.43.64-9.21,4.3-10.06,9.56-1.23,7.62,4.17,13.17,12.98,13.18,59.47.02,118.94.01,178.41.01ZM40.04,512.4h353.52v-22.11H40.04v22.11ZM353.95,472.18c2.79.12,4.41.26,6.03.26,10.67.02,21.37-.56,31.98.19,8.49.6,13.88-3.36,18.59-9.34,6.06-7.69,7.05-16.46,4.39-25.55-7.62-26.02-15.5-51.96-23.2-77.96-.72-2.43-1.83-3.47-4.51-3.45-13.5.13-27,.05-40.49.09-.9,0-1.8.38-2.89.63,3.56,18.26,7.1,36.21,10.54,54.18,3.83,20.04,10.26,40.07-.44,60.95ZM79.78,472.42c-5.53-12.68-7.32-24.85-4.94-37.5,1.81-9.64,3.72-19.27,5.59-28.9,3.15-16.3,6.31-32.6,9.49-49.06-.95-.23-1.57-.52-2.2-.52-13.82-.03-27.65.06-41.47-.12-3.34-.04-3.66,2.08-4.33,4.3-7.6,25.32-15.35,50.6-22.68,75.99-1.35,4.67-1.69,9.88-1.28,14.74.72,8.6,10.57,20.76,17.08,20.93,14.61.4,29.24.12,44.75.12ZM107.96,356.71c-5.37,27.83-10.92,55.21-15.82,82.7-1.82,10.19-.19,20.23,5.85,29.16,1.82,2.69,3.82,4.06,7.32,3.97,10.98-.26,21.97-.09,32.96-.09,2.42,0,4.84,0,7.87,0-3.88-12.86-4.48-25.26-3.14-37.73,1.62-15.05,3.62-30.06,5.42-45.09,1.3-10.85,2.55-21.7,3.86-32.93h-44.31ZM281.97,356.59c0,2.01-.15,3.5.02,4.95,1.78,14.87,3.85,29.72,5.38,44.62,1.71,16.68,5.71,33.23,3.53,50.18-.67,5.22-1.8,10.39-2.8,16.1,14.48,0,28.76.1,43.03-.15,1.53-.03,3.43-1.87,4.46-3.35,6.82-9.76,7.75-20.78,5.77-32.07-2.67-15.24-5.8-30.39-8.77-45.57-2.26-11.54-4.58-23.07-6.89-34.7h-43.73ZM226.15,356.66v115.77c13.66,0,26.96.09,40.26-.15,1.2-.02,2.92-1.97,3.46-3.38,3.84-10.16,4.7-20.74,3.49-31.47-1.78-15.89-3.71-31.75-5.63-47.62-1.33-11.02-2.74-22.04-4.13-33.15h-37.45ZM170.17,356.72c-2.78,22.82-5.47,44.97-8.18,67.11-1.6,13.07-3.31,26.13-.05,39.22,2.33,9.38,2.25,9.4,11.71,9.4,2.33,0,4.67,0,7,0h27v-115.73h-37.48Z"/>
  <path class="cls-1" d="M331.85,133.12H101.95c0,2.19,0,4.14,0,6.09,0,40.32,0,80.64,0,120.96,0,1.83.11,3.69-.15,5.49-.6,4.17-4.02,7.08-8.38,7.07-4.5,0-7.72-1.98-8.71-6.6-.38-1.77-.39-3.64-.39-5.46-.02-42.15-.14-84.31.02-126.46.24-62.82,40.17-114.73,99.76-130.01,76.49-19.62,152.96,31.54,163.94,109.78.97,6.9,1.39,13.94,1.41,20.91.13,41.99.07,83.98.04,125.96,0,1.98,0,4.05-.52,5.94-1.24,4.43-4.43,6.55-8.98,6.27-4.38-.27-7.02-2.84-7.95-7.02-.36-1.59-.18-3.32-.18-4.98,0-40.49,0-80.98,0-121.46,0-1.99,0-3.97,0-6.47ZM131.49,55.52c-15.29,17.44-24.66,36.8-28,59.36h91.33c-21.51-20.16-42.25-39.6-63.33-59.36ZM302.31,55.51c-21.14,19.81-41.94,39.31-63.52,59.54h91.54c-3.32-22.76-12.74-42.11-28.02-59.54ZM226.06,102.82c21.55-20.2,42.37-39.71,63.49-59.49-19.02-14.88-39.77-23.12-63.49-24.92v84.41ZM144.31,43.34c21.1,19.77,41.92,39.28,63.38,59.39V18.38c-23.75,1.92-44.54,10.09-63.38,24.96Z"/>
</svg>