<?xml version="1.0" encoding="UTF-8"?>
<svg id="Layer_1" data-name="Layer 1" xmlns="http://www.w3.org/2000/svg" viewBox="0 0 581.14 581.04">
  <defs>
    <style>
      .cls-1 {
        stroke-width: 0px;
      }
    </style>
  </defs>
  <path class="cls-1" d="M299.89,393.39c2.77,0,4.76,0,6.75,0,42.83,0,85.66-.05,128.49.04,12.11.02,21.28,5.51,26.29,16.58,4.72,10.43,3.31,20.58-3.96,29.53-5.84,7.18-13.68,10.17-22.91,10.13-24.33-.1-48.66-.03-72.99-.03-12.33,0-24.66,0-37,0-1.79,0-3.57,0-5.62,0v65.37c5.64.79,8.12,4.92,10.07,10.03,5.24,13.67,10.85,27.19,16.27,40.79,3.71,9.31-.16,15.17-10.15,15.19-29.66.05-59.33.05-88.99,0-10.03-.02-13.96-5.85-10.28-15.11,5.41-13.6,11.02-27.13,16.27-40.79,1.96-5.1,4.36-9.31,10.18-10.13v-65.36c-2.16,0-4.11,0-6.05,0-36.66,0-73.33.09-109.99-.04-20.43-.07-33.99-18.54-27.59-37.19,4-11.64,14.59-18.97,27.74-18.99,42.83-.04,85.66-.02,128.49-.02,1.95,0,3.9,0,6.15,0,.1-2.17.23-3.8.23-5.43.01-55.16-.05-110.33.12-165.49.01-4.16-1.43-5.69-5.12-6.94-53.71-18.25-107.36-36.67-161.05-54.95-2.77-.94-5.84-1.36-8.78-1.37-30.83-.1-61.66-.06-92.49-.06-1.33,0-2.67.05-4-.02-4.8-.24-8.34-2.3-9.61-7.18-1.21-4.67.7-8.13,4.63-10.58,7.77-4.85,15.53-9.71,23.37-14.45,59.67-36.15,119.87-71.37,183.09-101.07,20.03-9.41,40.38-18.07,61.92-23.66,12.63-3.28,25-2.74,37.45.77,27.21,7.68,52.71,19.52,77.91,32.01,64.21,31.81,125.83,68.21,186.72,105.91,4.25,2.63,6.64,6.04,5.33,11.2-1.17,4.63-4.78,7.06-10.71,7.07-33.33.03-66.66-.02-99.99.08-2.93,0-6.01.44-8.76,1.4-52.13,18.22-104.21,36.6-156.37,54.75-4.06,1.41-5.15,3.35-5.14,7.46.13,54.83.09,109.66.09,164.48v6.07ZM43.49,140.04h494.27c-2-1.34-3.13-2.2-4.35-2.89-41.22-23.45-82.21-47.32-123.77-70.17-30.17-16.59-61.09-31.83-93.76-43.1-13.06-4.51-26.37-7.93-40.02-3.07-15.96,5.68-32.12,11.05-47.51,18.07-63.08,28.79-122.88,63.68-182.28,99.29-.64.39-1.22.88-2.58,1.87ZM290.77,412.25c-48,0-96,0-144,.01-6.6,0-10.77,3.56-10.9,9.11-.13,5.45,4.15,9.37,10.52,9.64.83.03,1.67.01,2.5.01,94.5,0,189,0,283.5-.03,2.14,0,4.38-.08,6.42-.66,3.94-1.12,6.08-4.13,6.39-8.09.31-3.97-1.38-7.32-5.14-8.89-2.05-.86-4.51-1.05-6.79-1.05-47.5-.06-95-.04-142.5-.04ZM323.51,562.07c-3.58-8.98-6.94-17.59-10.52-26.12-.37-.87-2-1.7-3.06-1.71-12.81-.12-25.63-.1-38.44-.03-1.02,0-2.67.41-2.96,1.09-3.71,8.76-7.22,17.61-10.93,26.78h65.91ZM281.69,449.91v65.15h17.89v-65.15h-17.89ZM172.12,159.17c0,.34-.01.68-.02,1.02,24.57,8.4,49.13,16.8,73.7,25.2-8.94-8.89-18.29-17.02-27.72-25.07-.79-.68-2.08-1.09-3.14-1.1-14.27-.07-28.54-.05-42.82-.05ZM405.67,160.23c-.06-.35-.12-.69-.18-1.04-13.38,0-26.76-.02-40.14.04-.74,0-1.6.48-2.19.98-9.06,7.78-18.09,15.61-27.12,23.42.16.29.32.59.48.88,23.05-8.1,46.1-16.19,69.15-24.29ZM281.06,159.57h-35.09c11.99,10.36,23.18,20.03,35.09,30.32v-30.32ZM300.3,159.34v30.45c11.84-10.27,23.02-19.96,35.12-30.45h-35.12Z"/>
  <path class="cls-1" d="M387.07,526.81c-8.42-7.34-13.25-17.03-11.83-29.07,2.04-17.29,15.52-29.27,32.94-29.32,34.66-.1,69.31-.15,103.97.1,4.9.04,6.73-1.59,8.2-6.05,13.59-41.39,27.44-82.69,41.21-124.02.26-.79.54-1.57.81-2.36,2.38-6.87,7.11-9.7,12.79-7.64,5.26,1.9,7.11,7.02,4.87,13.77-6.8,20.52-13.64,41.03-20.48,61.54-8.26,24.77-16.54,49.53-24.82,74.29-2.51,7.52-4.81,9.19-12.71,9.19-37.82,0-75.64-.04-113.46.03-11.59.02-18.46,11.07-13.03,20.76,2.99,5.33,7.78,7.33,13.77,7.31,24.49-.07,48.98-.03,73.48-.03,16.83,0,33.66-.03,50.48,0,16.54.03,29.44,8.68,35.75,24.05,3.73,9.08,7.34,18.2,10.92,27.34,2.42,6.19.65,11.34-4.47,13.47-5.31,2.21-10.35-.33-12.93-6.66-3.64-8.93-7.21-17.89-10.8-26.85-3.35-8.34-9.45-12.53-18.49-12.52-38.99.02-77.98.03-116.96,0-8.19,0-13.97,3.73-17.61,10.92-4.88,9.65-9.64,19.36-14.52,29.01-3.1,6.14-8.28,8.35-13.36,5.84-5.06-2.49-6.45-8-3.38-14.13,6.39-12.78,12.87-25.52,19.66-38.97Z"/>
  <path class="cls-1" d="M194.09,526.87c7.07,14.05,13.99,27.49,20.61,41.08,2.22,4.55.08,9.71-4.22,11.91-4.68,2.39-10.09.74-12.72-4.32-4.99-9.6-9.85-19.26-14.5-29.02-4.12-8.63-10.61-12.49-20.25-12.44-37.82.2-75.64.07-113.47.08-11.34,0-16.6,3.6-20.86,14.24-3.4,8.49-6.72,17.02-10.19,25.48-2.46,6-7.47,8.43-12.69,6.34-5.16-2.07-7.05-7.27-4.64-13.39,3.71-9.44,7.32-18.94,11.37-28.23,6.57-15.08,18.33-23.1,34.75-23.18,41.65-.22,83.31-.04,124.96-.09,11.23-.01,18.36-9.98,14.02-19.61-2.66-5.91-7.51-8.49-14.03-8.47-24.33.09-48.65.03-72.98.03-13.5,0-26.99.01-40.49,0-7.33-.01-9.91-1.82-12.16-8.59-15.16-45.44-30.31-90.88-45.44-136.33-2.57-7.71.44-13.66,7.16-14.39,4.96-.54,8.46,2.07,10.44,8,10.65,31.86,21.26,63.72,31.88,95.59,3.63,10.88,7.41,21.72,10.82,32.67,1.02,3.27,2.45,4.29,5.89,4.28,33.66-.15,67.32.14,100.97-.19,15.99-.16,28.7,4.94,35.13,20.21,6.31,14.99,1.95,27.97-9.37,38.36Z"/>
  <path class="cls-1" d="M288.11,27.9c7.39-.14,11.47,3.27,11.72,8.8.24,5.44-3.34,8.43-9.04,9.91-11.21,2.91-22.34,6.28-33.25,10.17-8.12,2.89-15.8,6.97-23.75,10.36-5.22,2.23-10.46.22-12.61-4.53-2.11-4.68-.56-10.18,4.49-12.2,18.48-7.39,37.11-14.42,55.74-21.42,2.43-.91,5.23-.87,6.71-1.1Z"/>
  <path class="cls-1" d="M211.8,73.35c-1.94,2.44-3.46,5.51-5.93,7.18-4.23,2.85-8.97,4.98-13.63,7.13-5.13,2.36-10.37.44-12.65-4.32-2.2-4.59-.63-9.52,4.24-12.26,4.47-2.52,9.03-4.93,13.72-6.99,6.64-2.92,13.31,1.47,14.26,9.27Z"/>
</svg>