<?xml version="1.0" encoding="UTF-8"?>
<svg id="Layer_1" data-name="Layer 1" xmlns="http://www.w3.org/2000/svg" viewBox="0 0 1518.25 425.43">
  <defs>
    <style>
      .cls-1 {
        stroke-width: 0px;
      }
    </style>
  </defs>
  <path class="cls-1" d="M624.74,159.83v-12.71c12.67.59,25.29,1.17,38.52,1.78-.58,4.89-1.05,8.75-1.53,12.76-12.37-.61-24.39-1.21-36.99-1.84Z"/>
  <path class="cls-1" d="M1179.83,252.35c2.32-4.44,4.14-7.92,5.99-11.44,11.49,5.03,22.64,9.91,34.14,14.95-1.35,3.73-2.68,7.41-4.33,11.99-11.98-5.18-23.59-10.21-35.8-15.49Z"/>
  <path class="cls-1" d="M828.02,240.92c2.73-3.52,5.14-6.65,7.86-10.16,10.07,7.93,19.82,15.61,29.95,23.58-2.73,3.46-5.15,6.55-7.92,10.06-9.96-7.83-19.7-15.48-29.89-23.49Z"/>
  <path class="cls-1" d="M511.38,290.09c2.19-3.05,4.58-6.37,7.56-10.52,9.97,8.99,19.53,17.62,29.5,26.61-4.02,3.37-7.03,5.9-9.83,8.24-9.17-8.19-18.06-16.13-27.23-24.33Z"/>
  <path class="cls-1" d="M375.16,333.47c5.33-.89,9.19-1.54,12.76-2.14,3.65,11.49,7.19,22.65,10.96,34.54-2.99,1.51-6.58,3.34-11.46,5.81-4.11-12.79-8.03-25.02-12.26-38.21Z"/>
  <path class="cls-1" d="M129.13,141.75c-2.43,3.36-4.75,6.55-7.53,10.39-10.24-8.05-20.19-15.87-30.35-23.87,3.05-3.56,5.63-6.56,8.36-9.74,9.78,7.69,19.4,15.26,29.52,23.22Z"/>
  <path class="cls-1" d="M555.76,384.67c-3.82-2.35-7.07-4.34-10.84-6.66,5.85-9.95,8.49-20.57,7.22-32.28,4.48-.55,8.37-1.02,12.51-1.53,1.88,14.75-1.34,27.81-8.89,40.47Z"/>
  <path class="cls-1" d="M805.05,208.04c-2.8,4.02-5.04,7.24-7.34,10.54-10.69-6.78-21.04-13.33-31.67-20.07,2.05-3.6,4-7.01,6.35-11.12,10.91,6.9,21.5,13.59,32.66,20.65Z"/>
  <path class="cls-1" d="M1130.32,161.09c-4.25-1.17-8.04-2.22-12.28-3.39,4.01-14.04,10.57-25.89,22.56-34.79,2.63,3.53,5,6.7,7.57,10.16-9.14,7.14-14.45,16.58-17.85,28.02Z"/>
  <path class="cls-1" d="M153.62,173.46c2.56-4.14,4.63-7.5,6.76-10.95,11,6.21,21.68,12.24,32.71,18.46-1.88,3.66-3.68,7.14-5.85,11.37-11.23-6.31-22.16-12.45-33.62-18.89Z"/>
  <path class="cls-1" d="M1277.52,212.04h11.4c-.16,13.93-5.35,26.04-10.13,38.71-4.09-1.65-7.72-3.12-11.22-4.53,3.35-11.54,6.61-22.73,9.94-34.19Z"/>
  <path class="cls-1" d="M484.58,260.51c-2.11,4.71-3.72,8.28-5.27,11.75-11.82-4.12-23.19-8.08-34.95-12.18,1.02-3.76,2.05-7.53,3.35-12.33,12.35,4.27,24.31,8.41,36.87,12.76Z"/>
  <path class="cls-1" d="M1441.14,254.08c.92,4.24,1.71,7.93,2.69,12.46-12.42,2.49-24.66,4.94-37.38,7.49-.85-4.45-1.58-8.26-2.41-12.59,12.51-2.48,24.62-4.88,37.1-7.36Z"/>
  <path class="cls-1" d="M1172.99,361.64c-2.03-4.73-3.52-8.21-5.06-11.81,10.73-5.94,21.27-11.78,32.22-17.84,2.12,3.05,4.45,6.41,7.35,10.59-11.58,6.4-22.71,12.55-34.5,19.06Z"/>
  <path class="cls-1" d="M450.81,412.14c-.81,2.88-1.87,6.64-3.05,10.84-13.6-3.65-24.94-10.32-35.45-19.61,2.87-3.21,5.48-6.13,7.67-8.56,10.33,5.81,20.33,11.43,30.83,17.33Z"/>
  <path class="cls-1" d="M587.39,162.59c-12.73,1.94-24.65,3.76-37.06,5.66-.81-4.03-1.58-7.86-2.52-12.52,12.84-1.97,25.2-3.87,38.04-5.84.56,4.58,1.03,8.46,1.55,12.7Z"/>
  <path class="cls-1" d="M510.32,164.8c1.42,4.69,2.52,8.32,3.71,12.26-11.61,4.28-23.07,8.5-34.96,12.88-1.59-3.55-3.21-7.14-5.26-11.71,12.15-4.47,24.05-8.85,36.5-13.43Z"/>
  <path class="cls-1" d="M1154.63,221.53c-2.13,2.58-4.56,5.53-7.35,8.9-10.64-8.68-19.48-18.5-25.7-31.25,3.84-1.87,7.37-3.58,10.25-4.99,7.64,9.16,15.03,18.02,22.8,27.34Z"/>
  <path class="cls-1" d="M221.89,208.85c1.88-4.34,3.44-7.95,5.11-11.8,11.76,4.56,23.17,8.99,34.99,13.57-1.28,3.8-2.54,7.52-4.09,12.12-11.96-4.61-23.65-9.12-36.01-13.89Z"/>
  <path class="cls-1" d="M387,255.23c3.91,1.94,7.42,3.67,10.53,5.21-3.48,11.59-6.84,22.79-10.35,34.48-3.25-.38-7.12-.83-11.55-1.34,1.47-13.6,5.33-26.05,11.36-38.35Z"/>
  <path class="cls-1" d="M1291.72,271.3v12.85c-13.09-1.74-25.6-3.39-38.8-5.14.99-4.67,1.79-8.46,2.66-12.55,12.17,1.63,24.07,3.23,36.14,4.85Z"/>
  <path class="cls-1" d="M949.66,333.07c2.51-4.03,4.58-7.36,6.78-10.9,10.98,6.08,21.67,12,32.64,18.08-1.72,3.62-3.42,7.18-5.5,11.55-11.42-6.31-22.5-12.43-33.93-18.74Z"/>
  <path class="cls-1" d="M27.5,33.68c-3.38,1.92-6.79,3.86-11.14,6.34C10.88,28.14,5.58,16.65,0,4.54,4.46,2.85,8.1,1.48,12,0c5.14,11.16,10.16,22.07,15.51,33.68Z"/>
  <path class="cls-1" d="M37.8,72.36c3.9-2.95,7.06-5.33,10.26-7.74,8.12,9.45,16,18.63,23.85,27.78-2.78,2.9-5.58,5.81-8.9,9.27-8.34-9.7-16.55-19.24-25.21-29.31Z"/>
  <path class="cls-1" d="M1180.52,111.47c13.71.22,26.18,3.72,39.03,8.93-1.73,4.03-3.32,7.74-4.67,10.86-11.59-2.78-22.67-5.44-34.36-8.25v-11.54Z"/>
  <path class="cls-1" d="M418.39,230.9c-2.77-2.6-5.56-5.2-9.34-8.74,10.08-8.53,19.88-16.82,30.21-25.56,2.86,4.22,5.13,7.58,7.26,10.72-9.48,7.95-18.62,15.62-28.13,23.59Z"/>
  <path class="cls-1" d="M887.47,288.23c2.81-3.6,5.31-6.81,7.9-10.13,10.19,7.76,19.96,15.2,30.03,22.86-2.38,3.37-4.66,6.59-7.38,10.45-10.19-7.74-20.17-15.31-30.55-23.19Z"/>
  <path class="cls-1" d="M370.33,246.43c.7-4.53,1.28-8.28,1.95-12.61,12.59,1.96,24.84,3.86,37.68,5.85-.77,4.35-1.46,8.19-2.24,12.6-12.45-1.94-24.65-3.85-37.39-5.84Z"/>
  <path class="cls-1" d="M1516.04,239.65c.78,4.46,1.44,8.19,2.21,12.58-12.32,2.22-24.49,4.42-37.24,6.71-.83-4.09-1.61-7.92-2.56-12.56,12.47-2.23,24.67-4.41,37.59-6.73Z"/>
  <path class="cls-1" d="M1057.59,375.09c-12.74-2.91-24.97-5.7-37.98-8.67,1.4-4.62,2.58-8.48,3.74-12.33,11.97,2.77,23.55,5.46,35.98,8.33-.51,3.72-1.06,7.7-1.74,12.66Z"/>
  <path class="cls-1" d="M520.38,402.47c1.6,2.79,3.55,6.2,5.71,9.98-11.74,7.04-24.34,10.58-37.94,12.98-.65-4.21-1.26-8.22-1.8-11.72,11.35-3.75,22.29-7.36,34.04-11.24Z"/>
  <path class="cls-1" d="M1245.57,150.44c2.15-2.51,4.71-5.5,7.58-8.85,10.53,8.72,18.94,18.75,25.75,30.77-3.78,2.1-7.23,4.02-10.2,5.67-7.76-9.25-15.29-18.24-23.13-27.58Z"/>
  <path class="cls-1" d="M697.87,169.06c1.16-3.99,2.25-7.76,3.58-12.33,12.33,4.42,24.15,8.65,36.48,13.07-1.84,4.31-3.38,7.92-5.03,11.78-11.63-4.16-22.99-8.22-35.03-12.52Z"/>
  <path class="cls-1" d="M1227.93,308.11c7.74-9.97,15.08-19.4,22.67-29.17,3.16,2.02,6.47,4.13,10.83,6.91-8.12,10.46-16,20.61-24.15,31.1-3.62-3.42-6.49-6.13-9.35-8.84Z"/>
  <path class="cls-1" d="M1330.39,284.01c-.27-4.82-.48-8.71-.71-12.78,12.53-1.21,24.56-2.38,37.17-3.6.55,3.94,1.09,7.82,1.76,12.67-12.89,1.25-25.33,2.46-38.23,3.71Z"/>
  <path class="cls-1" d="M297.84,221.4c12.53,2.47,24.51,4.82,36.86,7.25-.67,4.09-1.28,7.79-2.06,12.55-12.58-2.43-24.86-4.81-37.72-7.3,1.02-4.37,1.9-8.17,2.91-12.51Z"/>
  <path class="cls-1" d="M1096.52,377.46v-12.75c12.12-1.35,23.98-2.68,36.25-4.05.84,3.76,1.7,7.58,2.82,12.58-13.27,1.43-25.88,2.79-39.07,4.22Z"/>
</svg>